<svg width="24" height="24" viewBox="0 0 24 24" fill="none" xmlns="http://www.w3.org/2000/svg">
<path d="M12.0003 3.27295C9.63021 3.27295 9.33276 3.28331 8.40188 3.32568C7.47282 3.36822 6.83866 3.51531 6.28376 3.73113C5.70978 3.95404 5.22289 4.25222 4.73781 4.73749C4.25237 5.22259 3.9542 5.70949 3.73057 6.28331C3.51421 6.8384 3.36694 7.47277 3.32513 8.40149C3.28349 9.3324 3.27258 9.63004 3.27258 12.0002C3.27258 14.3704 3.28313 14.6669 3.32531 15.5979C3.36803 16.5269 3.51512 17.1611 3.73075 17.716C3.95384 18.29 4.25201 18.7769 4.73727 19.262C5.22216 19.7475 5.70905 20.0464 6.28267 20.2693C6.83793 20.4851 7.47227 20.6322 8.40115 20.6748C9.33204 20.7171 9.6293 20.7275 11.9992 20.7275C14.3695 20.7275 14.6661 20.7171 15.5969 20.6748C16.526 20.6322 17.1609 20.4851 17.7161 20.2693C18.2899 20.0464 18.7761 19.7475 19.261 19.262C19.7464 18.7769 20.0446 18.29 20.2682 17.7162C20.4828 17.1611 20.6301 16.5268 20.6737 15.598C20.7155 14.6671 20.7264 14.3704 20.7264 12.0002C20.7264 9.63004 20.7155 9.33259 20.6737 8.40168C20.6301 7.47259 20.4828 6.8384 20.2682 6.28349C20.0446 5.70949 19.7464 5.22259 19.261 4.73749C18.7756 4.25204 18.2901 3.95386 17.7156 3.73113C17.1593 3.51531 16.5247 3.36822 15.5957 3.32568C14.6648 3.28331 14.3684 3.27295 11.9976 3.27295H12.0003ZM11.2174 4.84568C11.4498 4.84531 11.7091 4.84568 12.0003 4.84568C14.3304 4.84568 14.6066 4.85404 15.5268 4.89586C16.3776 4.93477 16.8394 5.07695 17.1471 5.1964C17.5543 5.35459 17.8447 5.54368 18.15 5.84913C18.4554 6.15459 18.6445 6.44549 18.803 6.85277C18.9225 7.16004 19.0648 7.62186 19.1036 8.47277C19.1454 9.39277 19.1545 9.66913 19.1545 11.9982C19.1545 14.3273 19.1454 14.6037 19.1036 15.5237C19.0646 16.3746 18.9225 16.8364 18.803 17.1437C18.6448 17.5509 18.4554 17.8409 18.15 18.1462C17.8445 18.4517 17.5545 18.6408 17.1471 18.7989C16.8398 18.9189 16.3776 19.0608 15.5268 19.0997C14.6068 19.1415 14.3304 19.1506 12.0003 19.1506C9.67002 19.1506 9.39385 19.1415 8.47388 19.0997C7.623 19.0604 7.16119 18.9182 6.85338 18.7988C6.44612 18.6406 6.15522 18.4515 5.84978 18.146C5.54433 17.8406 5.35525 17.5504 5.19671 17.1429C5.07726 16.8357 4.9349 16.3739 4.89617 15.5229C4.85435 14.6029 4.84599 14.3266 4.84599 11.996C4.84599 9.66549 4.85435 9.39059 4.89617 8.47059C4.93508 7.61968 5.07726 7.15786 5.19671 6.85022C5.35488 6.44295 5.54433 6.15204 5.84978 5.84659C6.15522 5.54113 6.44612 5.35204 6.85338 5.19349C7.16101 5.07349 7.623 4.93168 8.47388 4.89259C9.27895 4.85622 9.59094 4.84531 11.2174 4.84349V4.84568ZM16.6587 6.29477C16.0806 6.29477 15.6115 6.76331 15.6115 7.34168C15.6115 7.91986 16.0806 8.38895 16.6587 8.38895C17.2369 8.38895 17.706 7.91986 17.706 7.34168C17.706 6.76349 17.2369 6.2944 16.6587 6.2944V6.29477ZM12.0003 7.5184C9.5253 7.5184 7.51864 9.52513 7.51864 12.0002C7.51864 14.4753 9.5253 16.4811 12.0003 16.4811C14.4753 16.4811 16.4813 14.4753 16.4813 12.0002C16.4813 9.52513 14.4752 7.5184 12.0001 7.5184H12.0003ZM12.0003 9.09113C13.6068 9.09113 14.9093 10.3935 14.9093 12.0002C14.9093 13.6068 13.6068 14.9093 12.0003 14.9093C10.3936 14.9093 9.09132 13.6068 9.09132 12.0002C9.09132 10.3935 10.3936 9.09113 12.0003 9.09113Z" fill="#4B5563"/>
</svg>
