<svg width="24" height="24" viewBox="0 0 24 24" fill="none" xmlns="http://www.w3.org/2000/svg">
<path fill-rule="evenodd" clip-rule="evenodd" d="M18.6615 9.07632C18.6673 9.22622 18.6692 9.37606 18.6692 9.52596C18.6692 14.0707 15.4722 19.3173 9.62601 19.3173C7.83015 19.3173 6.16026 18.745 4.7533 17.7706C5.002 17.7979 5.25459 17.8184 5.51105 17.8184C7.00006 17.8184 8.37149 17.2663 9.45934 16.3397C8.06852 16.3192 6.89412 15.3176 6.48908 13.9549C6.68352 13.9958 6.88377 14.0163 7.08855 14.0163C7.3773 14.0163 7.65766 13.9754 7.9264 13.8937C6.47098 13.5802 5.37474 12.1903 5.37474 10.5209C5.37474 10.5005 5.37474 10.4936 5.37474 10.48C5.80368 10.7321 6.29463 10.8887 6.81594 10.9092C5.96194 10.2891 5.40057 9.23302 5.40057 8.04062C5.40057 7.41376 5.5569 6.82094 5.83209 6.30991C7.39926 8.39491 9.74229 9.76448 12.3837 9.90757C12.3295 9.65546 12.3017 9.3898 12.3017 9.12406C12.3017 7.22304 13.7248 5.68311 15.4806 5.68311C16.3947 5.68311 17.2203 6.0988 17.7997 6.76654C18.5252 6.61664 19.2048 6.33049 19.8197 5.93529C19.5814 6.73931 19.0781 7.41373 18.4205 7.83618C19.0639 7.75441 19.6776 7.57058 20.2467 7.29803C19.8197 7.98622 19.2823 8.59255 18.6615 9.07632Z" fill="#4B5563"/>
</svg>
