<svg width="16" height="28" viewBox="0 0 16 28" fill="none" xmlns="http://www.w3.org/2000/svg">
<path fill-rule="evenodd" clip-rule="evenodd" d="M15.1865 1.30513C15.1865 0.977508 14.9209 0.711914 14.5933 0.711914H1.30513C0.977508 0.711914 0.711914 0.977508 0.711914 1.30513V11.5801C0.711914 11.7599 0.793457 11.93 0.933629 12.0426L7.57769 17.3796C7.79469 17.5539 8.10371 17.5539 8.32071 17.3796L14.9648 12.0426C15.1049 11.93 15.1865 11.7599 15.1865 11.5801V1.30513Z" fill="white"/>
<path fill-rule="evenodd" clip-rule="evenodd" d="M1.30508 0H14.5932C15.314 0 15.8983 0.584306 15.8983 1.30508V11.58C15.8983 11.9756 15.7189 12.3498 15.4105 12.5975L8.76646 17.9345C8.28906 18.318 7.60924 18.318 7.13184 17.9345L0.487773 12.5975C0.179394 12.3498 0 11.9756 0 11.58V1.30508C0 0.584306 0.584306 0 1.30508 0ZM14.5932 0.711864C14.9208 0.711864 15.1864 0.977458 15.1864 1.30508V11.58C15.1864 11.7598 15.1049 11.9299 14.9647 12.0425L8.32066 17.3795C8.10366 17.5539 7.79465 17.5539 7.57765 17.3795L0.93358 12.0425C0.793407 11.9299 0.711864 11.7598 0.711864 11.58V1.30508C0.711864 0.977458 0.977458 0.711864 1.30508 0.711864H14.5932Z" fill="black"/>
<path fill-rule="evenodd" clip-rule="evenodd" d="M1.42411 11.5252L14.3804 1.54248V11.5252L14.3802 11.5252L7.90204 16.7289L1.42391 11.5252H1.42411Z" fill="#F5BF41"/>
<path fill-rule="evenodd" clip-rule="evenodd" d="M14.3803 11.5252L1.42407 1.54248V11.5252L1.42416 11.5252L7.90228 16.7289L14.3804 11.5252H14.3803Z" fill="#DE3151"/>
<path d="M11.5085 23.7288C11.5085 25.6945 9.91497 27.2881 7.94921 27.2881C5.98346 27.2881 4.38989 25.6945 4.38989 23.7288C4.38989 21.763 5.98346 20.1694 7.94921 20.1694C9.91497 20.1694 11.5085 21.763 11.5085 23.7288Z" fill="white"/>
<path fill-rule="evenodd" clip-rule="evenodd" d="M12.2204 23.7287C12.2204 26.0876 10.3081 27.9999 7.94917 27.9999C5.59025 27.9999 3.67798 26.0876 3.67798 23.7287C3.67798 21.3698 5.59025 19.4575 7.94917 19.4575C10.3081 19.4575 12.2204 21.3698 12.2204 23.7287ZM7.94917 27.288C9.91493 27.288 11.5085 25.6945 11.5085 23.7287C11.5085 21.7629 9.91493 20.1694 7.94917 20.1694C5.98341 20.1694 4.38984 21.7629 4.38984 23.7287C4.38984 25.6945 5.98341 27.288 7.94917 27.288Z" fill="black"/>
<path fill-rule="evenodd" clip-rule="evenodd" d="M6.31535 21.2529C5.51265 21.7837 4.98315 22.6944 4.98315 23.7288C4.98315 25.367 6.31112 26.6949 7.94926 26.6949C9.24148 26.6949 10.3407 25.8686 10.7473 24.7155L6.31535 21.2529Z" fill="#F5BF41"/>
</svg>
